<svg xmlns="http://www.w3.org/2000/svg" viewBox="0 0 246.24 261.34">
  <g>
    <path d="m185.23,123.5c1.91-.23,3.74-.24,5.41,0,.97-2.23,1.14-6.07.26-10.26-1.3-6.22-3.06-9.98-6.69-9.4-3.63.59-3.77,5.09-2.47,11.31.73,3.5,2.03,6.49,3.48,8.34Z"/>
    <path d="m154.03,128.42c2.6,1.14,4.2,1.9,4.82,1.24.4-.41.28-1.2-.34-2.21-1.28-2.09-3.92-4.22-6.72-5.41-5.73-2.47-12.56-1.65-17.83,2.14-1.74,1.27-3.39,3.04-3.15,4.11.08.35.34.61.95.69,1.43.16,6.45-2.37,12.22-2.72,4.08-.25,7.45,1.02,10.05,2.17Z"/>
    <path d="m148.79,131.4c-3.39.53-5.25,1.65-6.45,2.69-1.02.89-1.66,1.88-1.65,2.58,0,.33.15.52.26.62.15.14.34.21.56.21.76,0,2.48-.69,2.48-.69,4.71-1.69,7.82-1.48,10.9-1.13,1.7.19,2.51.3,2.88-.29.11-.17.24-.53-.1-1.08-.79-1.29-4.21-3.46-8.88-2.91Z"/>
    <path d="m174.69,142.36c2.3,1.13,4.83.69,5.66-.99s-.37-3.95-2.67-5.08c-2.3-1.13-4.83-.69-5.66.99-.82,1.68.37,3.95,2.67,5.08Z"/>
    <path d="m189.48,129.44c-1.87-.03-3.42,2.02-3.46,4.58-.04,2.56,1.44,4.66,3.3,4.7,1.87.03,3.42-2.02,3.46-4.58.04-2.56-1.44-4.66-3.3-4.7Z"/>
    <path d="m62.02,175.4c-.52.12-1.1.26-1.74.25-1.37-.03-2.54-.61-3.19-1.62-.85-1.31-.8-3.26.14-5.49.13-.3.28-.63.44-1,1.5-3.36,4.01-8.99,1.19-14.35-2.12-4.04-5.57-6.55-9.73-7.08-3.99-.51-8.1.97-10.72,3.86-4.13,4.56-4.78,10.76-3.98,12.96.29.8.75,1.03,1.08,1.07.7.09,1.74-.42,2.39-2.17.05-.13.11-.32.19-.57.29-.93.83-2.65,1.72-4.03,1.07-1.67,2.73-2.82,4.68-3.23,1.99-.43,4.02-.05,5.72,1.07,2.89,1.89,4.01,5.44,2.77,8.83-.64,1.75-1.68,5.1-1.45,7.85.46,5.57,3.89,7.8,6.96,8.04,2.99.11,5.08-1.57,5.61-2.79.31-.73.05-1.17-.12-1.36-.46-.58-1.23-.4-1.97-.23Z"/>
    <path d="m236.61,165.46c-.11-.4-.86-3.11-1.87-6.38-1.02-3.27-2.07-5.57-2.07-5.57,4.09-6.12,4.16-11.59,3.62-14.69-.58-3.84-2.18-7.12-5.4-10.5-3.22-3.38-9.82-6.85-19.08-9.45-1.06-.3-4.55-1.26-4.86-1.35-.02-.2-.26-11.46-.47-16.3-.15-3.49-.45-8.95-2.15-14.32-2.02-7.27-5.53-13.64-9.92-17.71,12.11-12.55,19.67-26.38,19.65-38.24-.03-22.81-28.05-29.71-62.57-15.42-.04.02-7.26,3.08-7.31,3.11-.03-.03-13.22-12.97-13.42-13.15C91.38-28.85-31.69,107.94,7.66,141.16l8.6,7.28c-2.23,5.78-3.11,12.4-2.39,19.52.92,9.14,5.64,17.91,13.28,24.68,7.26,6.43,16.8,10.5,26.06,10.49,15.31,35.28,50.3,56.93,91.32,58.15,44,1.31,80.94-19.34,96.41-56.43,1.01-2.6,5.31-14.33,5.31-24.68s-5.88-14.72-9.63-14.72Zm-180.03,27.77c-1.34.23-2.7.32-4.08.29-13.29-.36-27.65-12.32-29.07-26.51-1.58-15.68,6.44-27.75,20.63-30.61,1.7-.34,3.75-.54,5.96-.42,7.95.44,19.66,6.54,22.34,23.86,2.37,15.34-1.39,30.95-15.77,33.41Zm-14.84-66.22c-8.83,1.72-16.62,6.72-21.38,13.64-2.85-2.37-8.15-6.97-9.08-8.76-7.6-14.43,8.29-42.49,19.4-58.33,27.44-39.18,70.42-68.81,90.32-63.44,3.23.92,13.95,13.34,13.95,13.34,0,0-19.89,11.03-38.33,26.42-24.85,19.13-43.62,46.94-54.87,77.12Zm50.68-53.61c9.75-11.27,21.76-21.07,32.52-26.58.37-.19.77.21.56.58-.85,1.55-2.5,4.86-3.02,7.37-.08.39.35.69.68.46,6.69-4.56,18.34-9.45,28.55-10.08.44-.03.65.54.3.8-1.55,1.19-3.25,2.84-4.49,4.51-.21.28-.01.69.34.69,7.17.05,17.28,2.56,23.87,6.26.45.25.13,1.11-.37,1-9.97-2.29-26.29-4.02-43.24.12-15.13,3.69-26.68,9.39-35.11,15.52-.43.31-.94-.25-.59-.65Zm144.64,110.29c-1.91,11.58-6.83,20.97-15.1,29.62-5.03,5.42-11.15,10.13-18.14,13.56-3.71,1.95-7.67,3.64-11.84,5-31.18,10.18-63.09-1.01-73.37-25.05-.82-1.81-1.52-3.7-2.06-5.68-4.38-15.84-.66-34.85,10.97-46.81,0,0,0,0,0,0,.72-.76,1.45-1.66,1.45-2.79,0-.94-.6-1.94-1.12-2.65-4.07-5.9-18.17-15.96-15.34-35.43,2.03-13.98,14.26-23.83,25.67-23.25.96.05,1.93.11,2.89.17,4.94.29,9.25.93,13.32,1.1,6.81.29,12.93-.7,20.18-6.74,2.45-2.04,4.41-3.81,7.73-4.37.35-.06,1.22-.37,2.95-.29,1.77.09,3.46.58,4.97,1.59,5.81,3.87,6.64,13.24,6.94,20.09.16,3.91.64,13.38.8,16.1.37,6.22,2,7.1,5.31,8.18,1.86.61,3.59,1.07,6.13,1.78,7.69,2.16,12.26,4.35,15.13,7.16,1.71,1.77,2.51,3.63,2.75,5.42.9,6.62-5.15,14.8-21.16,22.23-17.5,8.12-38.74,10.19-53.39,8.55-1.13-.12-5.14-.58-5.15-.58-11.73-1.58-18.43,13.59-11.38,23.97,4.54,6.7,16.89,11.05,29.27,11.06,28.35.01,50.14-12.12,58.27-22.58.24-.31.27-.35.65-.92.4-.59.07-.93-.43-.59-6.62,4.53-36.06,22.52-67.52,17.11,0,0-3.82-.63-7.32-1.99-2.78-1.08-8.59-3.75-9.29-9.71-25.42,7.85-41.45.48-40.45-.43,2.14-6.97,7.85-4.44,16.45-3.75,15.52.92,29.42-1.34,39.71-4.29,8.91-2.55,20.6-7.6,29.71-14.77,3.07,6.74,4.15,14.14,4.15,14.14,0,0,2.38-.43,4.36.79,1.87,1.15,3.24,3.55,2.31,9.74Z"/>
  </g>
</svg>
