<svg xmlns="http://www.w3.org/2000/svg" viewBox="0 0 260.43 275.29">
  <defs>
    <style>
      .cls-1 {
        fill: #fff;
        stroke-width: 0px;
      }
    </style>
  </defs>
  <g id="Layer_1-2" data-name="Layer 1">
    <g>
      <path class="cls-1" d="m58.28,142.85c-2.18-.11-4.19.08-5.86.42-13.96,2.82-21.85,14.69-20.3,30.13,1.4,13.96,15.53,25.74,28.61,26.09,1.35.03,2.7-.06,4.01-.28,14.15-2.41,17.86-17.78,15.52-32.87-2.63-17.04-14.16-23.05-21.98-23.48Zm13.87,40.38c-.52,1.21-2.58,2.86-5.52,2.75-3.03-.23-6.4-2.43-6.85-7.91-.23-2.71.8-6,1.42-7.72,1.22-3.33.12-6.82-2.73-8.69-1.67-1.1-3.67-1.47-5.63-1.05-1.92.41-3.56,1.54-4.61,3.18-.87,1.36-1.4,3.06-1.69,3.97-.08.24-.14.44-.18.56-.64,1.72-1.66,2.23-2.36,2.13-.33-.04-.78-.26-1.07-1.05-.79-2.16-.15-8.26,3.92-12.75,2.58-2.84,6.62-4.3,10.55-3.8,4.09.52,7.49,2.99,9.58,6.96,2.77,5.28.3,10.81-1.17,14.12-.16.36-.31.69-.43.98-.92,2.2-.97,4.11-.14,5.4.64.99,1.79,1.57,3.14,1.59.63.01,1.21-.12,1.71-.24.73-.17,1.48-.34,1.94.23.17.19.43.62.12,1.34Z"/>
      <path class="cls-1" d="m255.04,169.56c-1.64-2.02-3.63-3.65-5.77-4.8-.18-.59-.37-1.22-.57-1.86-.23-.74-.47-1.44-.69-2.09,3.34-7.07,3.08-13.21,2.5-16.61-.89-5.74-3.34-10.54-7.7-15.13-5.32-5.59-14.18-9.17-21.24-11.29-.09-3.35-.19-7.16-.3-9.52-.14-3.15-.43-9.68-2.47-16.27-1.52-5.42-3.75-10.39-6.52-14.6,10.69-12.83,16.48-26.08,16.47-37.91-.03-19.16-14.95-31.54-38-31.54-10.95,0-23.43,2.77-36.12,8.03-.02,0-.72.3-1.69.71-3.86-3.78-8.94-8.77-9.28-9.06-5.8-5.06-13-7.63-21.41-7.63-10,0-21.5,3.71-34.16,11.02-10.92,6.31-22.66,15.32-33.95,26.08C31.14,59.02,12.59,85.28,4.52,107.33,1.06,116.79-.42,125.38.1,132.86c.64,9.08,4.32,16.69,10.64,22.03l3.93,3.33c-1.24,5.39-1.57,11.1-.98,17.04,1.13,11.27,6.84,21.98,16.07,30.16,7.42,6.58,16.52,10.85,25.68,12.17,8.22,16.41,20.77,30.24,36.57,40.22,17.04,10.77,37.44,16.8,58.99,17.44,1.37.04,2.76.06,4.13.06h0c22.25,0,43.08-5.47,60.24-15.82,17.67-10.65,31.2-26.33,39.13-45.34.03-.07.06-.14.08-.21,1.37-3.52,5.84-15.92,5.84-27.57,0-8.42-2.93-13.79-5.39-16.8Zm-8.89,41.09c-15.23,36.5-51.58,56.82-94.88,55.53-40.37-1.2-74.79-22.5-89.86-57.22-9.11,0-18.5-4-25.64-10.32-7.52-6.66-12.16-15.29-13.07-24.29-.7-7.01.16-13.52,2.35-19.21l-8.46-7.17C-22.13,115.28,98.98-19.33,137.71,14.45c.2.17,13.18,12.91,13.21,12.94.05-.03,7.16-3.04,7.2-3.06,33.97-14.07,61.54-7.28,61.57,15.17.02,11.67-7.42,25.28-19.34,37.63,4.32,4.01,7.78,10.27,9.76,17.43,1.67,5.29,1.96,10.66,2.11,14.1.21,4.76.44,15.84.46,16.04.3.09,3.74,1.04,4.78,1.33,9.12,2.56,15.61,5.97,18.78,9.3,3.17,3.33,4.75,6.55,5.32,10.33.53,3.05.46,8.44-3.56,14.46,0,0,1.04,2.26,2.04,5.48,1,3.21,1.73,5.88,1.84,6.28,3.69,0,9.48,4.24,9.48,14.48s-4.23,21.73-5.22,24.29Z"/>
      <path class="cls-1" d="m240.07,180.22c-1.95-1.2-4.29-.78-4.29-.78,0,0-1.06-7.29-4.08-13.92-8.94,7.06-20.45,12.02-29.22,14.53-10.11,2.9-23.8,5.13-39.07,4.22-8.47-.68-14.08-3.16-16.19,3.69,19.35,7.09,39.84,4.05,39.84,4.05.4-.04.75.25.79.64.03.32-.16.65-.45.77,0,0-15.74,7.31-40.73-.42.69,5.86,6.41,8.49,9.14,9.55,3.44,1.34,7.2,1.96,7.2,1.96,30.97,5.33,59.92-12.38,66.44-16.84.49-.33.81,0,.42.58-.38.57-.4.6-.64.91-7.98,10.29-29.43,22.21-57.33,22.2-12.17,0-24.33-4.29-28.8-10.88-6.93-10.22-.34-25.14,11.2-23.59.01,0,3.95.45,5.06.57,14.43,1.61,35.32-.42,52.54-8.41,15.75-7.31,21.7-15.36,20.81-21.87-.24-1.76-1.03-3.59-2.71-5.33-2.83-2.77-7.32-4.93-14.89-7.05-2.5-.7-4.2-1.15-6.03-1.75-3.25-1.07-4.86-1.93-5.22-8.05-.16-2.67-.63-11.99-.79-15.84-.3-6.75-1.11-15.97-6.83-19.77-1.49-.99-3.15-1.47-4.89-1.56-1.71-.08-2.56.23-2.9.28-3.27.55-5.2,2.29-7.6,4.3-7.14,5.95-13.16,6.92-19.86,6.63-4-.17-8.25-.79-13.11-1.08-.95-.06-1.9-.11-2.84-.16-11.22-.57-23.26,9.12-25.26,22.88-2.78,19.16,11.09,29.06,15.09,34.87.51.69,1.1,1.67,1.1,2.6,0,1.11-.72,1.99-1.43,2.74,0,0,0,0,0,0-11.45,11.77-15.11,30.47-10.8,46.06.54,1.95,1.22,3.81,2.03,5.59,10.12,23.66,41.53,34.67,72.2,24.65,4.11-1.34,8-3,11.66-4.92,6.88-3.37,12.9-8.01,17.85-13.34,8.14-8.51,12.98-17.75,14.86-29.14.92-6.1-.43-8.46-2.27-9.59Zm-41.31-39.16c-.04,2.52-1.57,4.54-3.41,4.51-1.84-.03-3.29-2.1-3.25-4.62.04-2.52,1.57-4.54,3.41-4.51,1.84.03,3.29,2.1,3.25,4.62Zm-8.43-29.81c3.58-.58,5.31,3.13,6.59,9.25.86,4.12.7,7.9-.26,10.09-1.65-.23-3.45-.22-5.33,0-1.43-1.82-2.71-4.77-3.43-8.21-1.28-6.12-1.15-10.55,2.43-11.13Zm-12,32.9c.81-1.65,3.3-2.09,5.57-.97,2.26,1.11,3.44,3.35,2.63,5-.81,1.65-3.3,2.09-5.57.97-2.26-1.11-3.44-3.35-2.63-5Zm-14.02-1.85c-.37.57-1.16.47-2.83.28-3.03-.35-6.09-.55-10.73,1.11,0,0-1.69.68-2.44.68-.22,0-.4-.07-.55-.21-.11-.09-.25-.28-.25-.61,0-.68.62-1.66,1.62-2.54,1.18-1.02,3.02-2.12,6.35-2.65,4.59-.54,7.96,1.6,8.74,2.86.34.54.2.9.09,1.07Zm-25.6-6.32c-.6-.08-.86-.34-.93-.68-.23-1.06,1.39-2.79,3.1-4.05,5.19-3.73,11.91-4.53,17.54-2.11,2.76,1.17,5.35,3.26,6.62,5.33.61,1,.73,1.77.33,2.18-.62.65-2.19-.09-4.75-1.22-2.56-1.12-5.88-2.38-9.89-2.13-5.68.35-10.61,2.84-12.03,2.68Z"/>
      <path class="cls-1" d="m177.69,66.54c.49.11.8-.74.36-.98-6.48-3.64-16.43-6.11-23.49-6.16-.35,0-.54-.4-.34-.68,1.22-1.64,2.89-3.26,4.42-4.44.34-.26.14-.82-.3-.79-10.05.62-21.51,5.43-28.09,9.92-.32.22-.74-.07-.66-.45.51-2.47,2.13-5.73,2.97-7.25.2-.36-.19-.76-.56-.57-10.59,5.42-22.4,15.06-32,26.15-.34.39.16.95.58.64,8.29-6.03,19.66-11.64,34.55-15.27,16.68-4.07,32.74-2.36,42.55-.11Z"/>
      <path class="cls-1" d="m141.85,32.15s-10.54-12.22-13.72-13.12c-19.58-5.29-61.87,23.88-88.87,62.41-10.93,15.59-26.57,43.2-19.09,57.4.92,1.76,6.14,6.28,8.94,8.62,4.68-6.81,12.34-11.73,21.04-13.42,11.07-29.7,29.54-57.06,53.99-75.89,18.15-15.14,37.72-25.99,37.72-25.99Z"/>
    </g>
  </g>
</svg>
