<svg width="100" height="100" viewBox="0 0 100 100" fill="none" xmlns="http://www.w3.org/2000/svg">
<path d="M83.2874 3.02945e-08H16.7096C14.5152 -0.000132016 12.3423 0.431992 10.3149 1.2717C8.28758 2.1114 6.44548 3.34224 4.89382 4.89392C3.34217 6.44561 2.11136 8.28774 1.27167 10.3151C0.431983 12.3425 -0.000132013 14.5155 3.02528e-08 16.7099L3.02528e-08 83.2871C-4.19222e-08 87.7191 1.76037 91.9696 4.89393 95.1038C8.0275 98.238 12.2776 99.9992 16.7096 100H83.2874C87.7197 99.9995 91.9703 98.2385 95.1044 95.1043C98.2385 91.9701 99.9995 87.7195 100 83.2871V16.7099C99.9995 12.2778 98.2384 8.02742 95.1042 4.89374C91.97 1.76005 87.7194 -0.000266642 83.2874 3.02945e-08ZM81.8175 76.5458C81.8175 77.9448 81.2619 79.2864 80.2728 80.2757C79.2837 81.265 77.9422 81.8209 76.5433 81.8212H23.4587C22.7661 81.8211 22.0803 81.6845 21.4404 81.4193C20.8006 81.1541 20.2192 80.7655 19.7296 80.2757C19.2399 79.7858 18.8515 79.2043 18.5866 78.5643C18.3216 77.9243 18.1853 77.2385 18.1855 76.5458V23.4602C18.1853 22.7676 18.3216 22.0818 18.5866 21.4419C18.8515 20.802 19.2399 20.2205 19.7296 19.7307C20.2193 19.2409 20.8007 18.8524 21.4405 18.5873C22.0804 18.3223 22.7662 18.1858 23.4587 18.1858H76.5433C77.9421 18.1858 79.2836 18.7415 80.2727 19.7307C81.2619 20.7198 81.8175 22.0614 81.8175 23.4602V76.5458ZM39.3901 63.57C38.9914 63.5696 38.5966 63.4905 38.2285 63.3371C37.8604 63.1837 37.5262 62.9592 37.2451 62.6763C36.964 62.3934 36.7416 62.0578 36.5905 61.6887C36.4395 61.3197 36.3628 60.9244 36.3649 60.5256V39.3396C36.3629 38.9409 36.4397 38.5457 36.5908 38.1767C36.7419 37.8077 36.9643 37.4721 37.2454 37.1893C37.5265 36.9064 37.8606 36.6819 38.2286 36.5285C38.5967 36.375 38.9914 36.2958 39.3901 36.2953H60.6119C61.0108 36.2957 61.4058 36.3748 61.7741 36.5281C62.1425 36.6814 62.4769 36.9059 62.7583 37.1887C63.0397 37.4716 63.2626 37.8071 63.4141 38.1762C63.5655 38.5453 63.6427 38.9407 63.6411 39.3396V60.5256C63.6423 60.924 63.565 61.3186 63.4136 61.687C63.2621 62.0555 63.0396 62.3904 62.7586 62.6728C62.4777 62.9552 62.1438 63.1794 61.7761 63.3326C61.4085 63.4859 61.0142 63.5652 60.6159 63.566L39.3901 63.57Z" fill="black"/>
</svg>
